<svg width="20" height="20" viewBox="0 0 20 20" fill="none" xmlns="http://www.w3.org/2000/svg">
<path d="M11.0977 10.5494C11.0977 11.3525 11.673 12.0061 12.3965 12.0061C13.1086 12.0061 13.6953 11.3525 13.6953 10.5494C13.6953 9.74668 13.1199 9.09277 12.3965 9.09277C11.6676 9.09277 11.0863 9.75254 11.0977 10.5494Z" fill="white"/>
<path d="M6.2959 10.5494C6.2959 11.3525 6.86543 12.0061 7.59473 12.0061C8.30684 12.0061 8.89355 11.3525 8.89355 10.5494C8.89355 9.74668 8.31816 9.09277 7.59473 9.09277C6.86543 9.09277 6.28457 9.75254 6.2959 10.5494Z" fill="white"/>
<path d="M10 0C15.5227 0 20 4.47734 20 10C20 15.5227 15.5227 20 10 20C4.47734 20 0 15.5227 0 10C0 4.47734 4.47734 0 10 0ZM2.85508 13.6816C4.09102 14.5895 5.28867 15.1406 6.46953 15.5059C6.48828 15.5117 6.50859 15.5047 6.52031 15.4887C6.79297 15.109 7.04062 14.7086 7.25781 14.2883C7.27031 14.2637 7.25898 14.234 7.2332 14.2242C6.83984 14.0754 6.46562 13.8977 6.10547 13.6875C6.07695 13.6707 6.07539 13.6301 6.10156 13.6105C6.17774 13.5539 6.25352 13.4941 6.32578 13.4344C6.33945 13.4234 6.35781 13.4211 6.37305 13.4285C8.71055 14.5086 11.2711 14.5086 13.6363 13.4285C13.6516 13.4219 13.6699 13.4242 13.6828 13.4352C13.7551 13.4945 13.8309 13.5539 13.9066 13.6105C13.9328 13.6301 13.9309 13.6707 13.9023 13.6875C13.5422 13.8938 13.168 14.0754 12.775 14.2246C12.7492 14.2344 12.7371 14.2637 12.75 14.2883C12.9621 14.7094 13.2102 15.1094 13.4879 15.4891C13.5 15.5047 13.5199 15.5117 13.5387 15.5059C14.7141 15.1406 15.9113 14.5895 17.1477 13.6816C17.1578 13.6734 17.1652 13.6609 17.1664 13.6477C17.418 10.9512 16.9047 8.22109 15.0312 5.42188C15.0266 5.41445 15.0199 5.40859 15.0117 5.40547C14.0902 4.98203 13.1023 4.6707 12.0703 4.49297C12.0516 4.49023 12.0328 4.49883 12.023 4.51523C11.8953 4.74141 11.7496 5.03086 11.6508 5.26758C10.5629 5.10156 9.45781 5.10156 8.34687 5.26758C8.24844 5.03594 8.10781 4.74141 7.98086 4.51523C7.97109 4.49805 7.95234 4.48945 7.93359 4.49297C6.90078 4.67109 5.91289 4.98281 4.9918 5.40547C4.98359 5.40859 4.97695 5.41445 4.97305 5.42266C3.34101 7.82305 2.53477 10.5309 2.83633 13.6484C2.8375 13.6617 2.84414 13.6734 2.85508 13.6816Z" fill="white"/>
</svg>
