<svg width="20" height="20" viewBox="0 0 20 20" fill="none" xmlns="http://www.w3.org/2000/svg">
<path d="M10 0C4.475 0 0 4.42726 0 9.88755C0 14.257 2.865 17.9623 6.8375 19.2687C7.3375 19.3617 7.52083 19.0557 7.52083 18.7932C7.52083 18.5585 7.5125 17.9363 7.50833 17.112C4.72667 17.7082 4.14 15.7855 4.14 15.7855C3.685 14.6443 3.0275 14.3391 3.0275 14.3391C2.12167 13.7262 3.0975 13.7388 3.0975 13.7388C4.10167 13.8075 4.62917 14.7575 4.62917 14.7575C5.52083 16.2694 6.97 15.8325 7.54167 15.5801C7.63167 14.9403 7.88917 14.5052 8.175 14.2578C5.95417 14.0104 3.62 13.1602 3.62 9.37188C3.62 8.29273 4.0075 7.41063 4.64917 6.71887C4.53667 6.469 4.19917 5.46364 4.73667 4.10193C4.73667 4.10193 5.57417 3.83696 7.48667 5.11567C8.28667 4.89598 9.13667 4.78698 9.98667 4.78195C10.8367 4.78698 11.6867 4.89598 12.4867 5.11567C14.3867 3.83696 15.2242 4.10193 15.2242 4.10193C15.7617 5.46364 15.4242 6.469 15.3242 6.71887C15.9617 7.41063 16.3492 8.29273 16.3492 9.37188C16.3492 13.1703 14.0117 14.0062 11.7867 14.2494C12.1367 14.5462 12.4617 15.1525 12.4617 16.079C12.4617 17.4022 12.4492 18.4654 12.4492 18.7865C12.4492 19.0456 12.6242 19.355 13.1367 19.2561C17.1375 17.9581 20 14.2503 20 9.88755C20 4.42726 15.5225 0 10 0Z" fill="white"/>
</svg>
