<svg width="20" height="18" viewBox="0 0 20 18" fill="none" xmlns="http://www.w3.org/2000/svg">
<path d="M17.2727 0.154297H2.72727C1.22104 0.154297 0 1.23445 0 2.56688V15.434C0 16.7665 1.22104 17.8466 2.72727 17.8466H17.2727C18.779 17.8466 20 16.7665 20 15.434V2.56688C20 1.23445 18.779 0.154297 17.2727 0.154297Z" fill="white"/>
<path d="M7.20499 4.97955C7.20499 5.27777 7.10502 5.56931 6.91772 5.81727C6.73042 6.06524 6.46421 6.25851 6.15275 6.37263C5.84128 6.48676 5.49855 6.51662 5.1679 6.45844C4.83725 6.40026 4.53353 6.25665 4.29515 6.04577C4.05676 5.83489 3.89442 5.56621 3.82865 5.27372C3.76288 4.98122 3.79664 4.67804 3.92565 4.40251C4.05466 4.12698 4.27314 3.89149 4.55345 3.7258C4.83376 3.56011 5.16332 3.47168 5.50044 3.47168C5.95252 3.47168 6.38608 3.63054 6.70574 3.91332C7.0254 4.1961 7.20499 4.57964 7.20499 4.97955Z" fill="black"/>
<path d="M6.81865 7.49212V14.1539C6.81894 14.203 6.80826 14.2517 6.78721 14.2972C6.76616 14.3427 6.73515 14.384 6.69597 14.4189C6.65679 14.4537 6.61022 14.4814 6.55892 14.5002C6.50762 14.5191 6.45261 14.5288 6.39705 14.5288H4.60046C4.54491 14.529 4.48987 14.5194 4.43852 14.5006C4.38716 14.4819 4.3405 14.4543 4.30122 14.4196C4.26193 14.3848 4.2308 14.3436 4.20961 14.2981C4.18842 14.2527 4.17759 14.204 4.17774 14.1549V7.49212C4.17774 7.39294 4.22227 7.29782 4.30155 7.22769C4.38083 7.15756 4.48835 7.11816 4.60046 7.11816H6.39705C6.50897 7.11843 6.6162 7.15795 6.69523 7.22805C6.77426 7.29815 6.81865 7.39311 6.81865 7.49212Z" fill="black"/>
<path d="M16.2099 10.9614V14.1862C16.2101 14.2314 16.2001 14.2762 16.1806 14.318C16.1612 14.3597 16.1326 14.3977 16.0964 14.4296C16.0603 14.4616 16.0174 14.4869 15.9702 14.5041C15.923 14.5214 15.8724 14.5302 15.8213 14.53H13.8895C13.8384 14.5302 13.7878 14.5214 13.7406 14.5041C13.6934 14.4869 13.6504 14.4616 13.6143 14.4296C13.5782 14.3977 13.5496 14.3597 13.5301 14.318C13.5106 14.2762 13.5007 14.2314 13.5008 14.1862V11.0609C13.5008 10.5945 13.6554 9.01827 12.1224 9.01827C10.9349 9.01827 10.6929 10.0969 10.6452 10.5814V14.1862C10.6452 14.2766 10.605 14.3632 10.5333 14.4276C10.4617 14.4919 10.3643 14.5287 10.2622 14.53H8.39629C8.34531 14.53 8.29483 14.5211 8.24774 14.5038C8.20065 14.4866 8.15788 14.4612 8.12188 14.4293C8.08589 14.3973 8.05737 14.3594 8.03796 14.3177C8.01855 14.276 8.00864 14.2313 8.00879 14.1862V7.46416C8.00864 7.41906 8.01855 7.37438 8.03796 7.33268C8.05737 7.29097 8.08589 7.25306 8.12188 7.22113C8.15788 7.18919 8.20065 7.16385 8.24774 7.14656C8.29483 7.12927 8.34531 7.12037 8.39629 7.12037H10.2622C10.3653 7.12037 10.4641 7.15659 10.537 7.22107C10.6099 7.28554 10.6508 7.37299 10.6508 7.46416V8.0452C11.0917 7.46014 11.7452 7.00879 13.1395 7.00879C16.2281 7.00879 16.2099 9.5601 16.2099 10.9614Z" fill="black"/>
</svg>
